<?xml version="1.0" encoding="UTF-8" standalone="no"?>
<!-- Created with Inkscape (http://www.inkscape.org/) -->

<svg
   xmlns:osb="http://www.openswatchbook.org/uri/2009/osb"
   xmlns:dc="http://purl.org/dc/elements/1.1/"
   xmlns:cc="http://creativecommons.org/ns#"
   xmlns:rdf="http://www.w3.org/1999/02/22-rdf-syntax-ns#"
   xmlns:svg="http://www.w3.org/2000/svg"
   xmlns="http://www.w3.org/2000/svg"
   xmlns:xlink="http://www.w3.org/1999/xlink"
   xmlns:sodipodi="http://sodipodi.sourceforge.net/DTD/sodipodi-0.dtd"
   xmlns:inkscape="http://www.inkscape.org/namespaces/inkscape"
   width="276.40793"
   height="200.92383"
   id="svg2"
   version="1.1"
   inkscape:version="0.48.5 r10040"
   sodipodi:docname="lab-II-pith-balls.svg">
  <sodipodi:namedview
     id="base"
     pagecolor="#ffffff"
     bordercolor="#666666"
     borderopacity="1.0"
     inkscape:pageopacity="0.0"
     inkscape:pageshadow="2"
     inkscape:zoom="1.9873603"
     inkscape:cx="157.38368"
     inkscape:cy="87.817967"
     inkscape:document-units="px"
     inkscape:current-layer="layer1"
     showgrid="true"
     inkscape:window-width="1061"
     inkscape:window-height="691"
     inkscape:window-x="84"
     inkscape:window-y="60"
     inkscape:window-maximized="0"
     fit-margin-top="0"
     fit-margin-left="0"
     fit-margin-right="0"
     fit-margin-bottom="0">
    <inkscape:grid
       type="xygrid"
       id="grid2985"
       empspacing="5"
       visible="true"
       enabled="true"
       snapvisiblegridlinesonly="true"
       originx="-219.5px"
       originy="-449.57617px" />
  </sodipodi:namedview>
  <defs
     id="defs4">
    <marker
       inkscape:stockid="Arrow1Lend"
       orient="auto"
       refY="0"
       refX="0"
       id="Arrow1Lend"
       style="overflow:visible">
      <path
         id="path5572"
         d="M 0,0 5,-5 -12.5,0 5,5 0,0 z"
         style="fill-rule:evenodd;stroke:#000000;stroke-width:1pt"
         transform="matrix(-0.8,0,0,-0.8,-10,0)"
         inkscape:connector-curvature="0" />
    </marker>
    <marker
       inkscape:stockid="Arrow1Lstart"
       orient="auto"
       refY="0"
       refX="0"
       id="Arrow1Lstart"
       style="overflow:visible">
      <path
         id="path5569"
         d="M 0,0 5,-5 -12.5,0 5,5 0,0 z"
         style="fill-rule:evenodd;stroke:#000000;stroke-width:1pt"
         transform="matrix(0.8,0,0,0.8,10,0)"
         inkscape:connector-curvature="0" />
    </marker>
    <linearGradient
       id="linearGradient3781"
       osb:paint="solid">
      <stop
         style="stop-color:#ffffff;stop-opacity:1;"
         offset="0"
         id="stop3783" />
    </linearGradient>
    <linearGradient
       inkscape:collect="always"
       xlink:href="#linearGradient3781"
       id="linearGradient3791"
       gradientUnits="userSpaceOnUse"
       x1="248.64999"
       y1="572.36218"
       x2="291.35001"
       y2="572.36218" />
  </defs>
  <metadata
     id="metadata7">
    <rdf:RDF>
      <cc:Work
         rdf:about="">
        <dc:format>image/svg+xml</dc:format>
        <dc:type
           rdf:resource="http://purl.org/dc/dcmitype/StillImage" />
        <dc:title />
      </cc:Work>
    </rdf:RDF>
  </metadata>
  <g
     inkscape:label="Layer 1"
     inkscape:groupmode="layer"
     id="layer1"
     transform="translate(-219.5,-401.86218)">
    <g
       id="g3787"
       transform="matrix(-1,0,0,1,570,-2.6171874e-6)">
      <path
         inkscape:connector-curvature="0"
         id="path2987"
         d="m 350,402.36218 -70,130"
         style="fill:none;stroke:#000000;stroke-width:1px;stroke-linecap:butt;stroke-linejoin:miter;stroke-opacity:1" />
      <path
         transform="translate(0,-30)"
         d="m 290,572.36218 c 0,11.0457 -8.95431,20 -20,20 -11.04569,0 -20,-8.9543 -20,-20 0,-11.04569 8.95431,-20 20,-20 11.04569,0 20,8.95431 20,20 z"
         sodipodi:ry="20"
         sodipodi:rx="20"
         sodipodi:cy="572.36218"
         sodipodi:cx="270"
         id="path3011"
         style="fill:url(#linearGradient3791);fill-opacity:1;stroke:#000000;stroke-width:2.70000005;stroke-miterlimit:4;stroke-opacity:1;stroke-dasharray:none"
         sodipodi:type="arc" />
    </g>
    <path
       style="fill:none;stroke:#000000;stroke-width:1;stroke-linecap:butt;stroke-linejoin:miter;stroke-miterlimit:4;stroke-opacity:1;stroke-dasharray:1, 3;stroke-dashoffset:0"
       d="m 220,402.36218 0,180"
       id="path3822"
       inkscape:connector-curvature="0" />
    <text
       xml:space="preserve"
       style="font-size:48px;font-style:normal;font-weight:normal;line-height:125%;letter-spacing:0px;word-spacing:0px;fill:#000000;fill-opacity:1;stroke:none;font-family:Sans"
       x="84.285713"
       y="58.142857"
       id="text3881"
       sodipodi:linespacing="125%"
       transform="translate(118.65,401.86218)"><tspan
         sodipodi:role="line"
         id="tspan3883"
         x="84.285713"
         y="58.142857" /></text>
    <g
       id="g3340"
       inkscape:transform-center-x="370.43517"
       inkscape:transform-center-y="-599.48437"
       transform="matrix(2.9810234,0,0,1.9378789,8.0922329,379.40968)">
      <g
         word-spacing="normal"
         letter-spacing="normal"
         font-size-adjust="none"
         font-stretch="normal"
         font-weight="normal"
         font-variant="normal"
         font-style="normal"
         stroke-miterlimit="10.433"
         xml:space="preserve"
         transform="matrix(0.25857143,0,0,-0.25857143,-45.25,152.51251)"
         id="g3342"
         style="font-style:normal;font-variant:normal;font-weight:normal;font-stretch:normal;letter-spacing:normal;word-spacing:normal;text-anchor:start;fill:none;stroke:#000000;stroke-linecap:butt;stroke-linejoin:miter;stroke-miterlimit:10.43299961;stroke-opacity:1;stroke-dasharray:none;stroke-dashoffset:0"><path
           id="path3344"
           d="m 478.19,431.11 0,0.31 -0.01,0.34 -0.02,0.36 -0.02,0.37 -0.03,0.39 -0.04,0.39 -0.04,0.41 -0.06,0.41 -0.07,0.42 -0.07,0.43 -0.09,0.42 -0.1,0.43 -0.12,0.42 -0.12,0.42 -0.14,0.41 -0.16,0.41 -0.17,0.4 -0.18,0.38 -0.2,0.37 -0.22,0.36 -0.23,0.34 -0.25,0.32 -0.28,0.3 -0.29,0.27 -0.31,0.25 -0.16,0.12 -0.17,0.1 -0.17,0.1 -0.18,0.1 -0.18,0.08 -0.19,0.08 -0.19,0.07 -0.2,0.06 -0.21,0.05 -0.21,0.05 -0.22,0.03 -0.22,0.02 -0.23,0.02 -0.23,0 -0.05,-1.09 c 2.44,0 2.73,-3.19 2.73,-6.03 0,-2.44 -0.39,-4.99 -1.59,-9.92 h -10.41 c 0.85,3.2 1.85,7.18 3.83,10.72 1.36,2.43 3.19,5.23 5.44,5.23 l 0.05,1.09 c -6.92,0 -14.6,-14.04 -14.6,-25.45 0,-4.69 1.44,-10.22 5.99,-10.22 v 1.1 c -1.66,0 -2.71,1.45 -2.71,6.07 0,2.1 0.3,4.99 1.6,9.86 h 10.37 c -0.54,-2.28 -1.59,-6.51 -3.5,-10.11 -1.73,-3.39 -3.62,-5.82 -5.76,-5.82 v -1.1 c 7.01,0 14.59,14.3 14.59,25.46 z"
           inkscape:connector-curvature="0"
           style="fill:#000000;stroke-width:0" /></g>    </g>
    <text
       xml:space="preserve"
       style="font-size:28px;font-style:italic;font-weight:normal;line-height:125%;letter-spacing:0px;word-spacing:0px;fill:#000000;fill-opacity:1;stroke:none;font-family:Sans;-inkscape-font-specification:Sans Italic"
       x="114.47016"
       y="97.248421"
       id="text4787"
       sodipodi:linespacing="125%"
       transform="translate(118.65,401.86218)"><tspan
         sodipodi:role="line"
         id="tspan4789"
         x="114.47016"
         y="97.248421" /></text>
    <path
       style="fill:none;stroke:#000000;stroke-width:0.84779125px;stroke-linecap:butt;stroke-linejoin:miter;stroke-opacity:1;marker-start:url(#Arrow1Lstart);marker-end:url(#Arrow1Lend)"
       d="m 320,577.36218 115,0"
       id="path4795"
       inkscape:connector-curvature="0" />
    <text
       xml:space="preserve"
       style="font-size:28px;font-style:italic;font-weight:normal;line-height:125%;letter-spacing:0px;word-spacing:0px;fill:#000000;fill-opacity:1;stroke:none;font-family:Sans;-inkscape-font-specification:Sans Italic"
       x="370"
       y="602.36218"
       id="text6195"
       sodipodi:linespacing="125%"><tspan
         sodipodi:role="line"
         id="tspan6197"
         x="370"
         y="602.36218">d</tspan></text>
    <path
       sodipodi:type="arc"
       style="fill:none;stroke:#000000;stroke-width:3;stroke-miterlimit:4;stroke-opacity:1;stroke-dasharray:none;stroke-dashoffset:0"
       id="path3085"
       sodipodi:cx="276.35001"
       sodipodi:cy="140.5"
       sodipodi:rx="20"
       sodipodi:ry="20"
       d="m 296.35001,140.5 c 0,11.04569 -8.95431,20 -20,20 -11.0457,0 -20,-8.95431 -20,-20 0,-11.04569 8.9543,-20 20,-20 11.04569,0 20,8.95431 20,20 z"
       transform="matrix(0.93749998,0,0,0.93749998,195.92187,414.39343)" />
    <g
       id="g3889">
      <text
         transform="translate(118.65,401.86218)"
         sodipodi:linespacing="125%"
         id="text3867"
         y="97.220894"
         x="186.17661"
         style="font-size:28px;font-style:italic;font-weight:normal;line-height:125%;letter-spacing:0px;word-spacing:0px;fill:#000000;fill-opacity:1;stroke:none;font-family:Sans;-inkscape-font-specification:Sans Italic"
         xml:space="preserve"><tspan
           y="97.220894"
           x="186.17661"
           id="tspan3869"
           sodipodi:role="line">q</tspan></text>
      <text
         sodipodi:linespacing="125%"
         id="text3875"
         y="512.36218"
         x="320"
         style="font-size:18px;font-style:normal;font-weight:normal;line-height:125%;letter-spacing:0px;word-spacing:0px;fill:#000000;fill-opacity:1;stroke:none;font-family:Sans;-inkscape-font-specification:Sans"
         xml:space="preserve"><tspan
           y="512.36218"
           x="320"
           id="tspan3877"
           sodipodi:role="line">1</tspan></text>
    </g>
    <g
       id="g3883"
       transform="translate(0.6335083,74.756851)">
      <text
         transform="translate(118.65,401.86218)"
         sodipodi:linespacing="125%"
         id="text3871"
         y="100.74315"
         x="350.71649"
         style="font-size:28px;font-style:italic;font-weight:normal;line-height:125%;letter-spacing:0px;word-spacing:0px;fill:#000000;fill-opacity:1;stroke:none;font-family:Sans;-inkscape-font-specification:Sans Italic"
         xml:space="preserve"><tspan
           y="100.74315"
           x="350.71649"
           id="tspan3873"
           sodipodi:role="line">q</tspan></text>
      <text
         sodipodi:linespacing="125%"
         id="text3879"
         y="517.36218"
         x="485"
         style="font-size:18px;font-style:normal;font-weight:normal;line-height:125%;letter-spacing:0px;word-spacing:0px;fill:#000000;fill-opacity:1;stroke:none;font-family:Sans;-inkscape-font-specification:Sans"
         xml:space="preserve"><tspan
           y="517.36218"
           x="485"
           id="tspan3881"
           sodipodi:role="line">2</tspan></text>
    </g>
    <path
       style="fill:none;stroke:#000000;stroke-width:1px;stroke-linecap:butt;stroke-linejoin:miter;stroke-opacity:1;marker-start:url(#Arrow1Lstart);marker-end:url(#Arrow1Lend)"
       d="m 316.35,110.5 40,0"
       id="path3895"
       inkscape:connector-curvature="0"
       transform="translate(118.65,401.86218)" />
    <text
       xml:space="preserve"
       style="font-size:28px;font-style:italic;font-weight:normal;line-height:125%;letter-spacing:0px;word-spacing:0px;fill:#000000;fill-opacity:1;stroke:none;font-family:Sans;-inkscape-font-specification:Sans Italic"
       x="445"
       y="502.36218"
       id="text4449"
       sodipodi:linespacing="125%"><tspan
         sodipodi:role="line"
         id="tspan4451"
         x="445"
         y="502.36218">D</tspan></text>
  </g>
</svg>
